<svg width="120" height="120" viewBox="0 0 120 120" fill="none" xmlns="http://www.w3.org/2000/svg">
<path d="M30.5 101L70 16.5L106 54.5L32 102.5L30.5 101Z" fill="#2F80ED" fill-opacity="0.3"/>
<path d="M60 29.75C41.6383 29.75 26.75 44.6383 26.75 63C26.75 81.3617 41.6383 96.25 60 96.25C78.3617 96.25 93.25 81.3617 93.25 63C93.25 44.6383 78.3617 29.75 60 29.75ZM60 90.6094C44.7555 90.6094 32.3906 78.2445 32.3906 63C32.3906 47.7555 44.7555 35.3906 60 35.3906C75.2445 35.3906 87.6094 47.7555 87.6094 63C87.6094 78.2445 75.2445 90.6094 60 90.6094ZM63.5402 61.2781L61.6551 60.8402V50.8727C64.4754 51.2586 66.2195 53.025 66.5164 55.1922C66.5535 55.4891 66.8059 55.7043 67.1027 55.7043H70.4352C70.784 55.7043 71.0586 55.4 71.0289 55.0512C70.5762 50.4273 66.7688 47.4586 61.6848 46.9465V44.5195C61.6848 44.193 61.4176 43.9258 61.091 43.9258H59.0055C58.6789 43.9258 58.4117 44.193 58.4117 44.5195V46.9688C53.157 47.4809 49.0453 50.3828 49.0453 55.8008C49.0453 60.818 52.7414 63.2375 56.623 64.1652L58.4563 64.6328V75.2238C55.1758 74.7859 53.3352 73.0344 52.9566 70.6742C52.9121 70.3922 52.6598 70.1844 52.3703 70.1844H48.9414C48.5926 70.1844 48.318 70.4813 48.3477 70.8301C48.6816 74.9121 51.7766 78.6676 58.382 79.15V81.4805C58.382 81.807 58.6492 82.0742 58.9758 82.0742H61.0836C61.4102 82.0742 61.6773 81.807 61.6773 81.4731L61.6625 79.1203C67.4738 78.6082 71.6301 75.4984 71.6301 69.9172C71.6227 64.7664 68.3496 62.4656 63.5402 61.2781ZM58.4488 60.0758C58.0332 59.957 57.6844 59.8457 57.3355 59.7047C54.827 58.7992 53.6617 57.3371 53.6617 55.452C53.6617 52.7578 55.7027 51.2215 58.4488 50.8727V60.0758ZM61.6551 75.2461V65.323C61.8852 65.3898 62.093 65.4418 62.3082 65.4863C65.8187 66.5551 66.9988 68.0395 66.9988 70.318C66.9988 73.2199 64.8168 74.9641 61.6551 75.2461Z" fill="black"/>
</svg>
