<svg width="84" height="87" viewBox="0 0 84 87" fill="none" xmlns="http://www.w3.org/2000/svg">
<path d="M8.5 85L48 0.5L84 38.5L10 86.5L8.5 85Z" fill="#2F80ED" fill-opacity="0.3"/>
<path d="M38 13.75C19.6383 13.75 4.75 28.6383 4.75 47C4.75 65.3617 19.6383 80.25 38 80.25C56.3617 80.25 71.25 65.3617 71.25 47C71.25 28.6383 56.3617 13.75 38 13.75ZM38 74.6094C22.7555 74.6094 10.3906 62.2445 10.3906 47C10.3906 31.7555 22.7555 19.3906 38 19.3906C53.2445 19.3906 65.6094 31.7555 65.6094 47C65.6094 62.2445 53.2445 74.6094 38 74.6094ZM41.5402 45.2781L39.6551 44.8402V34.8727C42.4754 35.2586 44.2195 37.025 44.5164 39.1922C44.5535 39.4891 44.8059 39.7043 45.1027 39.7043H48.4352C48.784 39.7043 49.0586 39.4 49.0289 39.0512C48.5762 34.4273 44.7688 31.4586 39.6848 30.9465V28.5195C39.6848 28.193 39.4176 27.9258 39.091 27.9258H37.0055C36.6789 27.9258 36.4117 28.193 36.4117 28.5195V30.9688C31.157 31.4809 27.0453 34.3828 27.0453 39.8008C27.0453 44.818 30.7414 47.2375 34.623 48.1652L36.4563 48.6328V59.2238C33.1758 58.7859 31.3352 57.0344 30.9566 54.6742C30.9121 54.3922 30.6598 54.1844 30.3703 54.1844H26.9414C26.5926 54.1844 26.318 54.4813 26.3477 54.8301C26.6816 58.9121 29.7766 62.6676 36.382 63.15V65.4805C36.382 65.807 36.6492 66.0742 36.9758 66.0742H39.0836C39.4102 66.0742 39.6773 65.807 39.6773 65.4731L39.6625 63.1203C45.4738 62.6082 49.6301 59.4984 49.6301 53.9172C49.6227 48.7664 46.3496 46.4656 41.5402 45.2781ZM36.4488 44.0758C36.0332 43.957 35.6844 43.8457 35.3355 43.7047C32.827 42.7992 31.6617 41.3371 31.6617 39.452C31.6617 36.7578 33.7027 35.2215 36.4488 34.8727V44.0758ZM39.6551 59.2461V49.323C39.8852 49.3898 40.093 49.4418 40.3082 49.4863C43.8187 50.5551 44.9988 52.0395 44.9988 54.318C44.9988 57.2199 42.8168 58.9641 39.6551 59.2461Z" fill="black"/>
</svg>
