<svg width="129" height="24" viewBox="0 0 129 24" fill="none" xmlns="http://www.w3.org/2000/svg">
<g clip-path="url(#clip0)">
<path d="M17.4206 22.4229C15.9173 23.1236 14.1487 23.5616 12.2917 23.5616C5.65935 23.5616 0.618805 18.5689 0.618805 11.9995C0.618805 5.4302 5.65935 0.4375 12.2917 0.4375C14.1487 0.4375 15.9173 0.875456 17.4206 1.57619V6.91925C16.1826 5.86816 14.3256 5.07984 12.2917 5.07984C8.4007 5.07984 5.48249 8.14553 5.48249 11.9995C5.48249 15.8536 8.4007 18.9193 12.2917 18.9193C14.414 18.9193 16.271 18.1309 17.4206 17.0798V22.4229Z" fill="white"/>
<path d="M35.195 18.3939H27.1478L25.4676 23.2114H20.1618L28.5627 0.788086H33.8686L42.2695 23.2114H36.9636L35.195 18.3939ZM28.6512 13.9268H33.6033L31.1272 6.91947L28.6512 13.9268Z" fill="white"/>
<path d="M49.3439 10.2479V23.2114H44.6571V3.59101L43.0653 1.13845V0.788086H48.6364L58.5407 15.0655V0.788086H63.2275V23.2114H58.5407L49.3439 10.2479Z" fill="white"/>
<path d="M77.9069 0.4375C84.5392 0.4375 89.5798 5.4302 89.5798 11.9995C89.5798 18.5689 84.5392 23.5616 77.9069 23.5616C71.2746 23.5616 66.2341 18.5689 66.2341 11.9995C66.2341 5.4302 71.2746 0.4375 77.9069 0.4375ZM77.9069 18.8317C81.7094 18.8317 84.6276 15.766 84.6276 11.912C84.6276 8.14553 81.7094 4.99224 77.9069 4.99224C74.016 4.99224 71.0978 8.05794 71.0978 11.912C71.0978 15.766 74.016 18.8317 77.9069 18.8317Z" fill="white"/>
<path d="M93.1172 0.788086H100.811C105.232 0.788086 108.239 3.41582 108.239 7.88298C108.239 12.3501 105.232 14.9779 100.811 14.9779H97.804V23.2114H93.1172V0.788086ZM100.722 5.25524H97.804V10.4231H100.722C102.226 10.4231 103.375 9.54721 103.375 7.88298C103.375 6.13115 102.314 5.25524 100.722 5.25524Z" fill="white"/>
<path d="M116.021 13.4888L108.77 0.788086H114.076L118.409 8.93407L122.742 0.788086H128.048L120.797 13.5764V23.2114H116.11V13.4888H116.021Z" fill="white"/>
</g>
<defs>
<clipPath id="clip0">
<rect width="128.667" height="24" fill="white"/>
</clipPath>
</defs>
</svg>
