<svg width="76" height="82" viewBox="0 0 76 82" fill="none" xmlns="http://www.w3.org/2000/svg">
<path d="M27 54.5L39.5 0.5L75.5 27L66.5 73L27 54.5Z" fill="#2F80ED" fill-opacity="0.3"/>
<path d="M64.1246 44.4456H37.5543V17.8753C37.5543 17.5487 37.2871 17.2816 36.9606 17.2816H35.0309C31.1322 17.2752 27.2707 18.0397 23.6686 19.5313C20.0664 21.0228 16.7948 23.2119 14.0418 25.9726C11.3307 28.6753 9.17049 31.8791 7.68129 35.4058C6.13164 39.0636 5.33646 42.9966 5.3434 46.9691C5.33701 50.8678 6.10159 54.7293 7.59313 58.3314C9.08468 61.9335 11.2738 65.2052 14.0344 67.9581C16.7582 70.6819 19.9348 72.8269 23.4676 74.3187C27.1254 75.8683 31.0584 76.6635 35.0309 76.6566C38.9296 76.6629 42.7911 75.8984 46.3932 74.4068C49.9954 72.9153 53.267 70.7262 56.02 67.9655C58.7438 65.2417 60.8887 62.0651 62.3805 58.5323C63.9302 54.8746 64.7253 50.9415 64.7184 46.9691V45.0394C64.7184 44.7128 64.4512 44.4456 64.1246 44.4456ZM52.3758 64.4698C50.0776 66.7501 47.3521 68.5545 44.3553 69.7797C41.3586 71.0049 38.1496 71.6268 34.9121 71.6097C28.3735 71.58 22.2282 69.0194 17.6043 64.3956C12.9508 59.7421 10.3903 53.5523 10.3903 46.9691C10.3903 40.3858 12.9508 34.196 17.6043 29.5425C21.6567 25.4901 26.8743 23.0187 32.5075 22.4546V49.4925H59.5453C58.9739 55.1554 56.4801 60.4026 52.3758 64.4698V64.4698ZM70.6559 40.3191L70.4629 38.2261C69.8321 31.3905 66.7965 24.9409 61.9129 20.0722C57.0259 15.1945 50.5895 12.1758 43.7145 11.537L41.6141 11.3441C41.2653 11.3144 40.9684 11.5816 40.9684 11.9304V40.4378C40.9684 40.7644 41.2356 41.0316 41.5621 41.0316L70.0621 40.9573C70.411 40.9573 70.6856 40.6605 70.6559 40.3191ZM46.0004 35.9995V16.955C50.6757 17.9335 54.9662 20.2489 58.3504 23.6198C61.7422 27.0042 64.0653 31.3089 65.0301 35.9476L46.0004 35.9995Z" fill="black"/>
</svg>
