<svg width="120" height="120" viewBox="0 0 120 120" fill="none" xmlns="http://www.w3.org/2000/svg">
<path d="M49 73.5L61.5 19.5L97.5 46L88.5 92L49 73.5Z" fill="#2F80ED" fill-opacity="0.3"/>
<path d="M86.1246 63.4456H59.5543V36.8753C59.5543 36.5487 59.2871 36.2816 58.9606 36.2816H57.0309C53.1322 36.2752 49.2707 37.0397 45.6686 38.5313C42.0664 40.0228 38.7948 42.2119 36.0418 44.9726C33.3307 47.6753 31.1705 50.8791 29.6813 54.4058C28.1316 58.0636 27.3365 61.9966 27.3434 65.9691C27.337 69.8678 28.1016 73.7293 29.5931 77.3314C31.0847 80.9335 33.2738 84.2052 36.0344 86.9581C38.7582 89.6819 41.9348 91.8269 45.4676 93.3187C49.1254 94.8683 53.0584 95.6635 57.0309 95.6566C60.9296 95.6629 64.7911 94.8984 68.3932 93.4068C71.9954 91.9153 75.267 89.7262 78.02 86.9655C80.7438 84.2417 82.8887 81.0651 84.3805 77.5323C85.9302 73.8746 86.7253 69.9415 86.7184 65.9691V64.0394C86.7184 63.7128 86.4512 63.4456 86.1246 63.4456ZM74.3758 83.4698C72.0776 85.7501 69.3521 87.5545 66.3553 88.7797C63.3586 90.0049 60.1496 90.6268 56.9121 90.6097C50.3735 90.58 44.2282 88.0194 39.6043 83.3956C34.9508 78.7421 32.3903 72.5523 32.3903 65.9691C32.3903 59.3858 34.9508 53.196 39.6043 48.5425C43.6567 44.4901 48.8743 42.0187 54.5075 41.4546V68.4925H81.5453C80.9739 74.1554 78.4801 79.4026 74.3758 83.4698V83.4698ZM92.6559 59.3191L92.4629 57.2261C91.8321 50.3905 88.7965 43.9409 83.9129 39.0722C79.0259 34.1945 72.5895 31.1758 65.7145 30.537L63.6141 30.3441C63.2653 30.3144 62.9684 30.5816 62.9684 30.9304V59.4378C62.9684 59.7644 63.2356 60.0316 63.5621 60.0316L92.0621 59.9573C92.411 59.9573 92.6856 59.6605 92.6559 59.3191ZM68.0004 54.9995V35.955C72.6757 36.9335 76.9662 39.2489 80.3504 42.6198C83.7422 46.0042 86.0653 50.3089 87.0301 54.9476L68.0004 54.9995Z" fill="black"/>
</svg>
