<svg width="120" height="120" viewBox="0 0 120 120" fill="none" xmlns="http://www.w3.org/2000/svg">
<path d="M31 108V51.5H44.5V108H31Z" fill="#2F80ED" fill-opacity="0.3"/>
<path d="M49 108V34H63V108H49Z" fill="#2F80ED" fill-opacity="0.3"/>
<path d="M79.0584 45.6676L64.274 47.4488C63.7842 47.5082 63.5764 48.1094 63.9252 48.4582L68.3264 52.8594L51.5529 69.6328L43.9975 62.0848C43.5299 61.6172 42.7803 61.6246 42.3201 62.0848L18.444 85.9683C18.3335 86.0799 18.2715 86.2306 18.2715 86.3877C18.2715 86.5447 18.3335 86.6954 18.444 86.807L21.7838 90.1617C22.0139 90.3918 22.3924 90.3918 22.6225 90.1617L43.1588 69.6328L50.7069 77.1808C51.1744 77.641 51.924 77.641 52.3842 77.1808L72.5272 57.0527L76.9283 61.4539C77.0072 61.5324 77.1065 61.5871 77.215 61.612C77.3234 61.6368 77.4367 61.6307 77.5418 61.5944C77.647 61.558 77.7399 61.4929 77.8098 61.4064C77.8798 61.3199 77.9241 61.2155 77.9377 61.1051L79.719 46.3207C79.7709 45.9422 79.4444 45.6156 79.0584 45.6676V45.6676Z" fill="black"/>
</svg>
