<svg width="76" height="78" viewBox="0 0 76 78" fill="none" xmlns="http://www.w3.org/2000/svg">
<path d="M20 78V21.5H33.5V78H20Z" fill="#2F80ED" fill-opacity="0.3"/>
<path d="M38 78V4H52V78H38Z" fill="#2F80ED" fill-opacity="0.3"/>
<path d="M68.0584 15.6676L53.274 17.4488C52.7842 17.5082 52.5764 18.1094 52.9252 18.4582L57.3264 22.8594L40.5529 39.6328L32.9975 32.0848C32.5299 31.6172 31.7803 31.6246 31.3201 32.0848L7.44396 55.9683C7.33346 56.0799 7.27148 56.2306 7.27148 56.3877C7.27148 56.5447 7.33346 56.6954 7.44396 56.807L10.7838 60.1617C11.0139 60.3918 11.3924 60.3918 11.6225 60.1617L32.1588 39.6328L39.7069 47.1808C40.1744 47.641 40.924 47.641 41.3842 47.1808L61.5272 27.0527L65.9283 31.4539C66.0072 31.5324 66.1065 31.5871 66.215 31.612C66.3234 31.6368 66.4367 31.6307 66.5418 31.5944C66.647 31.558 66.7399 31.4929 66.8098 31.4064C66.8798 31.3199 66.9241 31.2155 66.9377 31.1051L68.719 16.3207C68.7709 15.9422 68.4444 15.6156 68.0584 15.6676V15.6676Z" fill="black"/>
</svg>
