<svg width="76" height="76" viewBox="0 0 76 76" fill="none" xmlns="http://www.w3.org/2000/svg">
<path d="M31 74V27H76V74H31Z" fill="#2F80ED" fill-opacity="0.3"/>
<path d="M47.8488 49.6672C47.7939 49.5907 47.7214 49.5285 47.6375 49.4859C47.5535 49.4433 47.4606 49.4215 47.3664 49.4223H44.0859C43.6035 49.4223 43.3215 49.9715 43.6035 50.3648L49.0809 57.9426C49.3184 58.2691 49.8008 58.2691 50.0383 57.9426L58.5141 46.216C58.7961 45.8227 58.5141 45.2734 58.0316 45.2734H54.7437C54.5508 45.2734 54.3727 45.3625 54.2613 45.5184L49.5484 52.0348L47.8488 49.6672ZM51.0625 22.7109V19.1484C51.0625 18.8219 50.7953 18.5547 50.4688 18.5547H21.9688C21.6422 18.5547 21.375 18.8219 21.375 19.1484V22.7109C21.375 23.0375 21.6422 23.3047 21.9688 23.3047H50.4688C50.7953 23.3047 51.0625 23.0375 51.0625 22.7109ZM21.9688 29.2422C21.6422 29.2422 21.375 29.5094 21.375 29.8359V33.3984C21.375 33.725 21.6422 33.9922 21.9688 33.9922H35.625C35.9516 33.9922 36.2188 33.725 36.2188 33.3984V29.8359C36.2188 29.5094 35.9516 29.2422 35.625 29.2422H21.9688ZM35.625 63.2344H15.4375V10.9844H57V32.9531C57 33.2797 57.2672 33.5469 57.5938 33.5469H61.75C62.0766 33.5469 62.3438 33.2797 62.3438 32.9531V8.01562C62.3438 6.70195 61.2824 5.64062 59.9688 5.64062H12.4688C11.1551 5.64062 10.0938 6.70195 10.0938 8.01562V66.2031C10.0938 67.5168 11.1551 68.5781 12.4688 68.5781H35.625C35.9516 68.5781 36.2188 68.3109 36.2188 67.9844V63.8281C36.2188 63.5016 35.9516 63.2344 35.625 63.2344ZM65.5055 39.425L51.2555 34.4746C51.1887 34.4523 51.1293 34.4449 51.0625 34.4449C50.9957 34.4449 50.9289 34.4523 50.8695 34.4746L36.6195 39.425C36.5031 39.4645 36.4019 39.5394 36.3301 39.6392C36.2582 39.739 36.2193 39.8587 36.2188 39.9816V58.618C36.2188 58.8035 36.3004 58.9742 36.4488 59.0855L50.6988 70.2332C50.8027 70.3148 50.9363 70.3594 51.0625 70.3594C51.1887 70.3594 51.3223 70.3148 51.4262 70.2332L65.6762 59.0855C65.8172 58.9742 65.9062 58.8035 65.9062 58.618V39.9816C65.9062 39.7293 65.743 39.5066 65.5055 39.425ZM61.3047 56.6809L51.0625 64.6891L40.8203 56.6809V42.8242L51.0625 39.2617L61.3047 42.8242V56.6809Z" fill="black"/>
</svg>
