<svg width="120" height="120" viewBox="0 0 120 120" fill="none" xmlns="http://www.w3.org/2000/svg">
<path d="M51 112V65H96V112H51Z" fill="#2F80ED" fill-opacity="0.3"/>
<path d="M67.8488 87.6672C67.7939 87.5907 67.7214 87.5285 67.6375 87.4859C67.5535 87.4433 67.4606 87.4215 67.3664 87.4223H64.0859C63.6035 87.4223 63.3215 87.9715 63.6035 88.3648L69.0809 95.9426C69.3184 96.2691 69.8008 96.2691 70.0383 95.9426L78.5141 84.216C78.7961 83.8227 78.5141 83.2734 78.0316 83.2734H74.7437C74.5508 83.2734 74.3727 83.3625 74.2613 83.5184L69.5484 90.0348L67.8488 87.6672ZM71.0625 60.7109V57.1484C71.0625 56.8219 70.7953 56.5547 70.4688 56.5547H41.9688C41.6422 56.5547 41.375 56.8219 41.375 57.1484V60.7109C41.375 61.0375 41.6422 61.3047 41.9688 61.3047H70.4688C70.7953 61.3047 71.0625 61.0375 71.0625 60.7109ZM41.9688 67.2422C41.6422 67.2422 41.375 67.5094 41.375 67.8359V71.3984C41.375 71.725 41.6422 71.9922 41.9688 71.9922H55.625C55.9516 71.9922 56.2188 71.725 56.2188 71.3984V67.8359C56.2188 67.5094 55.9516 67.2422 55.625 67.2422H41.9688ZM55.625 101.234H35.4375V48.9844H77V70.9531C77 71.2797 77.2672 71.5469 77.5938 71.5469H81.75C82.0766 71.5469 82.3438 71.2797 82.3438 70.9531V46.0156C82.3438 44.702 81.2824 43.6406 79.9688 43.6406H32.4688C31.1551 43.6406 30.0938 44.702 30.0938 46.0156V104.203C30.0938 105.517 31.1551 106.578 32.4688 106.578H55.625C55.9516 106.578 56.2188 106.311 56.2188 105.984V101.828C56.2188 101.502 55.9516 101.234 55.625 101.234ZM85.5055 77.425L71.2555 72.4746C71.1887 72.4523 71.1293 72.4449 71.0625 72.4449C70.9957 72.4449 70.9289 72.4523 70.8695 72.4746L56.6195 77.425C56.5031 77.4645 56.4019 77.5394 56.3301 77.6392C56.2582 77.739 56.2193 77.8587 56.2188 77.9816V96.618C56.2188 96.8035 56.3004 96.9742 56.4488 97.0855L70.6988 108.233C70.8027 108.315 70.9363 108.359 71.0625 108.359C71.1887 108.359 71.3223 108.315 71.4262 108.233L85.6762 97.0855C85.8172 96.9742 85.9062 96.8035 85.9062 96.618V77.9816C85.9062 77.7293 85.743 77.5066 85.5055 77.425ZM81.3047 94.6809L71.0625 102.689L60.8203 94.6809V80.8242L71.0625 77.2617L81.3047 80.8242V94.6809Z" fill="black"/>
</svg>
