<svg width="34" height="42" viewBox="0 0 34 42" fill="none" xmlns="http://www.w3.org/2000/svg">
<path d="M32 0H2C1.17031 0 0.5 0.670312 0.5 1.5V40.5C0.5 41.3297 1.17031 42 2 42H32C32.8297 42 33.5 41.3297 33.5 40.5V1.5C33.5 0.670312 32.8297 0 32 0ZM3.875 3.375H30.125V13.125H3.875V3.375ZM30.125 25.875H3.875V16.125H30.125V25.875ZM30.125 38.625H3.875V28.875H30.125V38.625ZM16.25 6.75H7.625C7.41875 6.75 7.25 6.91875 7.25 7.125V9.375C7.25 9.58125 7.41875 9.75 7.625 9.75H16.25C16.4563 9.75 16.625 9.58125 16.625 9.375V7.125C16.625 6.91875 16.4563 6.75 16.25 6.75ZM7.625 22.5H16.25C16.4563 22.5 16.625 22.3313 16.625 22.125V19.875C16.625 19.6687 16.4563 19.5 16.25 19.5H7.625C7.41875 19.5 7.25 19.6687 7.25 19.875V22.125C7.25 22.3313 7.41875 22.5 7.625 22.5ZM23 33.9375C23 34.4348 23.1975 34.9117 23.5492 35.2633C23.9008 35.615 24.3777 35.8125 24.875 35.8125C25.3723 35.8125 25.8492 35.615 26.2008 35.2633C26.5525 34.9117 26.75 34.4348 26.75 33.9375C26.75 33.4402 26.5525 32.9633 26.2008 32.6117C25.8492 32.26 25.3723 32.0625 24.875 32.0625C24.3777 32.0625 23.9008 32.26 23.5492 32.6117C23.1975 32.9633 23 33.4402 23 33.9375V33.9375Z" fill="black"/>
</svg>
